<?xml version='1.0' encoding='utf-8'?>
<svg width="100px" xmlns="http://www.w3.org/2000/svg" version="1.1" viewBox="0.0 0.0 1856.5301837270342 1319.2073490813648" fill="none" stroke="none" stroke-linecap="square" stroke-miterlimit="10"><clipPath id="p.0"><path d="m0 0l1856.5302 0l0 1319.2074l-1856.5302 0l0 -1319.2074z" clip-rule="nonzero"/></clipPath><g clip-path="url(#p.0)"><path fill="#000000" fill-opacity="0.0" d="m0 0l1856.5302 0l0 1319.2074l-1856.5302 0z" fill-rule="evenodd"/><path fill="#f3f3f3" d="m424.8609 107.98946l0 0c0 -27.599724 22.373993 -49.973717 49.973694 -49.973717l655.17065 0c13.253906 0 25.964844 5.2650757 35.336792 14.636963c9.371948 9.371887 14.636963 22.082901 14.636963 35.336754l0 1002.35175c0 27.599731 -22.374023 49.973755 -49.973755 49.973755l-655.17065 0l0 0c-27.5997 0 -49.973694 -22.374023 -49.973694 -49.973755z" fill-rule="evenodd"/><path stroke="#666666" stroke-width="8.0" stroke-linejoin="round" stroke-linecap="butt" d="m424.8609 107.98946l0 0c0 -27.599724 22.373993 -49.973717 49.973694 -49.973717l655.17065 0c13.253906 0 25.964844 5.2650757 35.336792 14.636963c9.371948 9.371887 14.636963 22.082901 14.636963 35.336754l0 1002.35175c0 27.599731 -22.374023 49.973755 -49.973755 49.973755l-655.17065 0l0 0c-27.5997 0 -49.973694 -22.374023 -49.973694 -49.973755z" fill-rule="evenodd"/><path fill="#000000" fill-opacity="0.0" d="m464.13123 88.39895l506.99213 0l0 240.97638l-506.99213 0z" fill-rule="evenodd"/><path fill="#666666" d="m543.3187 145.9427q25.0 0 39.1875 11.953125q14.1875 11.9375 14.1875 32.84375q0 20.90625 -14.1875 32.765625q-14.1875 11.84375 -39.1875 11.84375l-35.09375 0l0 41.249985l-13.8125 0l0 -130.65623l48.90625 0zm-0.375 77.265625q19.40625 0 29.671875 -8.484375q10.265625 -8.5 10.265625 -23.984375q0 -15.875 -10.265625 -24.359375q-10.265625 -8.5 -29.671875 -8.5l-34.71875 0l0 65.328125l34.71875 0zm85.487915 -77.265625l53.1875 0q20.71875 0 36.578125 8.3125q15.875 8.296875 24.640625 23.140625q8.78125 14.828125 8.78125 33.875q0 19.03125 -8.78125 33.875q-8.765625 14.843735 -24.640625 23.156235q-15.859375 8.296875 -36.578125 8.296875l-53.1875 0l0 -130.65623zm52.453125 118.70311q17.171875 0 30.046875 -6.8125q12.875 -6.8124847 19.96875 -18.843735q7.09375 -12.046875 7.09375 -27.71875q0 -15.6875 -7.09375 -27.71875q-7.09375 -12.046875 -19.96875 -18.859375q-12.875 -6.8125 -30.046875 -6.8125l-38.640625 0l0 106.76561l38.640625 0zm115.537476 -106.76561l0 51.328125l67.5625 0l0 11.953125l-67.5625 0l0 55.437485l-13.8125 0l0 -130.65623l89.59375 0l0 11.9375l-75.78125 0z" fill-rule="nonzero"/><path fill="#000000" fill-opacity="0.0" d="m933.16534 147.30708l173.60626 0" fill-rule="evenodd"/><path stroke="#666666" stroke-width="4.0" stroke-linejoin="round" stroke-linecap="butt" d="m933.16534 147.30708l173.60626 0" fill-rule="evenodd"/><path fill="#000000" fill-opacity="0.0" d="m933.16534 244.49606l173.60626 0" fill-rule="evenodd"/><path stroke="#666666" stroke-width="4.0" stroke-linejoin="round" stroke-linecap="butt" d="m933.16534 244.49606l173.60626 0" fill-rule="evenodd"/><path fill="#000000" fill-opacity="0.0" d="m483.76904 348.958l622.99207 -3.5905457" fill-rule="evenodd"/><path stroke="#666666" stroke-width="4.0" stroke-linejoin="round" stroke-linecap="butt" d="m483.76904 348.958l622.99207 -3.5905457" fill-rule="evenodd"/><path fill="#000000" fill-opacity="0.0" d="m483.76904 453.41995l622.99207 -3.5905457" fill-rule="evenodd"/><path stroke="#666666" stroke-width="4.0" stroke-linejoin="round" stroke-linecap="butt" d="m483.76904 453.41995l622.99207 -3.5905457" fill-rule="evenodd"/><path fill="#000000" fill-opacity="0.0" d="m483.76904 557.8819l622.99207 -3.5905762" fill-rule="evenodd"/><path stroke="#666666" stroke-width="4.0" stroke-linejoin="round" stroke-linecap="butt" d="m483.76904 557.8819l622.99207 -3.5905762" fill-rule="evenodd"/><path fill="#000000" fill-opacity="0.0" d="m483.76904 766.8058l622.99207 -3.5905762" fill-rule="evenodd"/><path stroke="#666666" stroke-width="4.0" stroke-linejoin="round" stroke-linecap="butt" d="m483.76904 766.8058l622.99207 -3.5905762" fill-rule="evenodd"/><path fill="#000000" fill-opacity="0.0" d="m483.76904 662.3438l622.99207 -3.5905151" fill-rule="evenodd"/><path stroke="#666666" stroke-width="4.0" stroke-linejoin="round" stroke-linecap="butt" d="m483.76904 662.3438l622.99207 -3.5905151" fill-rule="evenodd"/><path fill="#000000" fill-opacity="0.0" d="m483.76904 871.2677l622.99207 -3.5905151" fill-rule="evenodd"/><path stroke="#666666" stroke-width="4.0" stroke-linejoin="round" stroke-linecap="butt" d="m483.76904 871.2677l622.99207 -3.5905151" fill-rule="evenodd"/><path fill="#000000" fill-opacity="0.0" d="m483.76904 979.3123l622.99207 -3.5905151" fill-rule="evenodd"/><path stroke="#666666" stroke-width="4.0" stroke-linejoin="round" stroke-linecap="butt" d="m483.76904 979.3123l622.99207 -3.5905151" fill-rule="evenodd"/><path fill="#000000" fill-opacity="0.0" d="m483.76904 1080.1917l622.99207 -3.5905762" fill-rule="evenodd"/><path stroke="#666666" stroke-width="4.0" stroke-linejoin="round" stroke-linecap="butt" d="m483.76904 1080.1917l622.99207 -3.5905762" fill-rule="evenodd"/><defs><linearGradient id="p.1" gradientUnits="userSpaceOnUse" gradientTransform="matrix(28.965404686291876 0.0 0.0 28.965404686291876 0.0 0.0)" spreadMethod="pad" x1="24.775052527120327" y1="14.761299411680769" x2="24.774947754653457" y2="43.72670409778315"><stop offset="0.0" stop-color="#FFB600"/><stop offset="1.0" stop-color="#FF8800"/></linearGradient></defs><path fill="url(#p.1)" d="m717.61945 872.054l199.93756 0l0 -444.48447l298.10913 0l0 444.48447l199.9375 0l-348.99207 394.50763z" fill-rule="evenodd"/><path stroke="#660000" stroke-width="8.0" stroke-linejoin="round" stroke-linecap="butt" d="m717.61945 872.054l199.93756 0l0 -444.48447l298.10913 0l0 444.48447l199.9375 0l-348.99207 394.50763z" fill-rule="evenodd"/></g></svg>